<svg width="260" height="304" viewBox="0 0 260 304" fill="none" xmlns="http://www.w3.org/2000/svg">
<path fill-rule="evenodd" clip-rule="evenodd" d="M33.9221 0.311172H227C245.225 0.311172 260 15.0858 260 33.3112V203.311C260 221.537 245.225 236.311 227 236.311H33.9221C15.6967 236.311 0.922089 221.537 0.922089 203.311V33.3112C0.922089 15.0858 15.6967 0.311172 33.9221 0.311172ZM87.319 137.357L68.2281 71.7203H39.6826L70.4099 164.811H104.955L135.683 71.7203H107.137L88.0463 137.357H87.319ZM144.649 71.7203V164.811H169.921V134.084H178.668L195.012 164.811H222.467L203.562 130.103C208.391 127.785 212.178 124.491 214.921 120.22C217.891 115.645 219.376 110.023 219.376 103.357C219.376 96.7506 217.936 91.0839 215.058 86.3566C212.179 81.6294 208.149 78.0081 202.967 75.493C197.785 72.9778 191.739 71.7203 184.83 71.7203H144.649ZM169.921 114.448H178.83C181.8 114.448 184.33 114.084 186.421 113.357C188.542 112.599 190.164 111.402 191.285 109.766C192.436 108.129 193.012 105.993 193.012 103.357C193.012 100.69 192.436 98.5233 191.285 96.8566C190.164 95.1597 188.542 93.9172 186.421 93.1293C184.33 92.3112 181.8 91.9021 178.83 91.9021H169.921V114.448Z" fill="white"/>
<path d="M247.576 283.59L197.587 207.893C194.733 203.572 197.832 197.811 203.011 197.811H253C256.59 197.811 259.5 200.721 259.5 204.311V280.008C259.5 286.454 251.128 288.969 247.576 283.59Z" fill="white" stroke="white"/>
</svg>
