<svg width="333" height="130" viewBox="0 0 333 130" fill="none" xmlns="http://www.w3.org/2000/svg">
<path d="M34.7405 32.542L43.38 62.2454H43.7091L52.3486 32.542H65.2667L51.3612 74.6698H35.7279L21.8224 32.542H34.7405Z" fill="white"/>
<path d="M255.342 58.0491L251.144 44.1436H250.815L246.617 58.0491H255.342Z" fill="white"/>
<path d="M111.827 101.37C112.829 103.504 114.32 105.363 116.157 106.8H17.6492C7.90183 106.8 0 98.8986 0 89.1512V17.6492C0 7.90183 7.90183 0 17.6492 0H116.157C114.32 1.4378 112.829 3.29632 111.827 5.43053H17.6492C10.901 5.43053 5.43053 10.901 5.43053 17.6492V89.1512C5.43053 95.8994 10.901 101.37 17.6492 101.37H111.827Z" fill="white"/>
<path fill-rule="evenodd" clip-rule="evenodd" d="M131.69 0H317.234C325.481 0 332.168 6.68617 332.168 14.934V91.8665V126.575C332.168 129.717 328.087 130.942 326.356 128.321L312.145 106.8H131.69C123.443 106.8 116.756 100.114 116.756 91.8665V14.934C116.756 6.68617 123.443 0 131.69 0ZM182.023 48.34H170.422C170.339 47.38 170.12 46.5092 169.763 45.7275C169.42 44.9459 168.94 44.2739 168.323 43.7117C167.72 43.1357 166.986 42.6969 166.122 42.3952C165.258 42.0798 164.278 41.9221 163.181 41.9221C161.261 41.9221 159.636 42.3883 158.306 43.3208C156.989 44.2533 155.988 45.5904 155.302 47.332C154.63 49.0736 154.294 51.1649 154.294 53.6059C154.294 56.1841 154.637 58.3439 155.323 60.0855C156.022 61.8134 157.03 63.1162 158.347 63.9939C159.663 64.8578 161.247 65.2898 163.099 65.2898C164.154 65.2898 165.101 65.1595 165.937 64.899C166.774 64.6247 167.501 64.2339 168.118 63.7265C168.735 63.2191 169.235 62.6088 169.619 61.8957C170.017 61.1689 170.284 60.353 170.422 59.4479L182.023 59.5302C181.886 61.3129 181.385 63.1299 180.521 64.9813C179.658 66.8189 178.43 68.5193 176.839 70.0827C175.262 71.6323 173.308 72.8802 170.977 73.8264C168.646 74.7727 165.937 75.2458 162.852 75.2458C158.984 75.2458 155.515 74.4161 152.443 72.7568C149.385 71.0975 146.965 68.6565 145.182 65.4338C143.413 62.2111 142.528 58.2685 142.528 53.6059C142.528 48.9159 143.433 44.9664 145.244 41.7575C147.054 38.5348 149.495 36.1007 152.567 34.4551C155.638 32.7957 159.067 31.9661 162.852 31.9661C165.512 31.9661 167.96 32.3295 170.195 33.0563C172.431 33.7831 174.392 34.8459 176.078 36.2447C177.765 37.6297 179.123 39.3371 180.151 41.3667C181.18 43.3963 181.804 45.7207 182.023 48.34ZM187.212 32.542H198.649V48.9982H213.789V32.542H225.226V74.6698H213.789V58.2137H198.649V74.6698H187.212V32.542ZM241.6 74.6698H229.257L243.163 32.542H258.796L272.702 74.6698H260.36L257.925 66.6063H244.034L241.6 74.6698ZM270.29 41.7575V32.542H306.905V41.7575H294.234V74.6698H282.961V41.7575H270.29Z" fill="white"/>
<path fill-rule="evenodd" clip-rule="evenodd" d="M255.342 58.0491L251.144 44.1436H250.815L246.617 58.0491H255.342Z" fill="white"/>
<path fill-rule="evenodd" clip-rule="evenodd" d="M69.3241 74.6698V32.542H87.5082C90.6349 32.542 93.3707 33.1112 95.7157 34.2494C98.0607 35.3876 99.8846 37.0264 101.187 39.1657C102.49 41.305 103.142 43.8694 103.142 46.8589C103.142 49.8759 102.47 52.4197 101.126 54.4905C99.884 56.4233 98.1705 57.9141 95.985 58.9628L104.54 74.6698H92.1159L84.7194 60.7644H80.7612V74.6698H69.3241ZM88.2281 51.3844C87.2819 51.7135 86.1368 51.878 84.7929 51.878H80.7612V41.6752H84.7929C86.1368 41.6752 87.2819 41.8603 88.2281 42.2306C89.1881 42.5872 89.9218 43.1494 90.4292 43.9174C90.9503 44.6716 91.2108 45.6521 91.2108 46.8589C91.2108 48.052 90.9503 49.0188 90.4292 49.7593C89.9218 50.4998 89.1881 51.0415 88.2281 51.3844Z" fill="white"/>
</svg>
